# xmcd
#
# Track frame offsets: 
#        300
#        38450
#        65399
#        82477
#        105769
#        139907
#        171955
#
# Disc length: 2809 seconds
#
# Revision: 0
# Processed by: cddbd v1.5.2PL0 Copyright (c) Steve Scherf et al.
# Submitted via: ExactAudioCopy v0.99pb4
#
DISCID=580af507
DTITLE=Roger Hodgson - In The Eye Of The Storm
DYEAR=1900
DGENRE=
TTITLE0=01. Had A Dream (Sleeping With The Enemy)
TTITLE1=02. In Jeopardy
TTITLE2=03. Lovers In The Wind
TTITLE3=04. Hooked On A Problem
TTITLE4=05. Give Me Love, Give Me Life
TTITLE5=06. I'm Not Afraid
TTITLE6=07. Only Because Of You
EXTD=
EXTT0=
EXTT1=
EXTT2=
EXTT3=
EXTT4=
EXTT5=
EXTT6=
PLAYORDER=
